<mxfile host="app.diagrams.net" modified="2024-03-03T06:56:37.224Z" agent="Mozilla/5.0 (Windows NT 10.0; Win64; x64) AppleWebKit/537.36 (KHTML, like Gecko) Chrome/122.0.0.0 Safari/537.36" version="24.0.1" etag="w7N9LOUWxKDmXXWYtWTX" type="github">
  <diagram name="第 1 页" id="ai2ycP1tNaV8kGXrx5Vn">
    <mxGraphModel>
      <root>
        <mxCell id="0" />
        <mxCell id="1" parent="0" />
      </root>
    </mxGraphModel>
  </diagram>
</mxfile>
